<svg width="717" height="195" viewBox="0 0 717 195" fill="none" xmlns="http://www.w3.org/2000/svg">
<mask id="mask0_2030_10" style="mask-type:alpha" maskUnits="userSpaceOnUse" x="0" y="0" width="194" height="195">
<rect x="0.232422" y="0.824707" width="193.768" height="193.768" fill="#D9D9D9"/>
</mask>
<g mask="url(#mask0_2030_10)">
<path d="M97.1164 178.445C85.9478 178.445 75.4521 176.326 65.6291 172.087C55.8062 167.848 47.2616 162.096 39.9953 154.83C32.729 147.563 26.9765 139.019 22.7379 129.196C18.4992 119.373 16.3799 108.877 16.3799 97.7087C16.3799 86.5401 18.4992 76.0444 22.7379 66.2214C26.9765 56.3985 32.729 47.8539 39.9953 40.5876C47.2616 33.3213 55.8062 27.5688 65.6291 23.3302C75.4521 19.0915 85.9478 16.9722 97.1164 16.9722C108.285 16.9722 118.781 19.0915 128.604 23.3302C138.427 27.5688 146.971 33.3213 154.237 40.5876C161.504 47.8539 167.256 56.3985 171.495 66.2214C175.734 76.0444 177.853 86.5401 177.853 97.7087C177.853 108.877 175.734 119.373 171.495 129.196C167.256 139.019 161.504 147.563 154.237 154.83C146.971 162.096 138.427 167.848 128.604 172.087C118.781 176.326 108.285 178.445 97.1164 178.445ZM57.5555 109.415L72.0881 102.149L55.9408 69.8546L41.4082 77.1209L57.5555 109.415ZM76.9322 146.151H93.0795V87.8184L76.1249 53.7073L61.5923 60.9736L76.9322 91.6534V146.151ZM101.153 146.151H117.3V91.4516L132.64 60.9736L118.108 53.7073L101.153 87.6166V146.151ZM136.677 109.415L152.825 77.1209L138.292 69.8546L122.145 102.149L136.677 109.415Z" fill="#2563EB"/>
</g>
<path d="M229.68 57H236.16V85H229.68V57ZM216.96 85H210.48V57H216.96V85ZM230.16 73.52H216.48V68.04H230.16V73.52ZM243.175 85V57H249.615V75.24L262.975 57H269.055V85H262.655V66.8L249.295 85H243.175ZM276.027 85V57H282.467V75.24L295.827 57H301.907V85H295.507V66.8L282.147 85H276.027ZM333.607 85.48C331.393 85.48 329.34 85.12 327.447 84.4C325.58 83.68 323.953 82.6667 322.567 81.36C321.207 80.0533 320.14 78.52 319.367 76.76C318.62 75 318.247 73.08 318.247 71C318.247 68.92 318.62 67 319.367 65.24C320.14 63.48 321.22 61.9467 322.607 60.64C323.993 59.3333 325.62 58.32 327.487 57.6C329.353 56.88 331.38 56.52 333.567 56.52C335.78 56.52 337.807 56.88 339.647 57.6C341.513 58.32 343.127 59.3333 344.487 60.64C345.873 61.9467 346.953 63.48 347.727 65.24C348.5 66.9733 348.887 68.8933 348.887 71C348.887 73.08 348.5 75.0133 347.727 76.8C346.953 78.56 345.873 80.0933 344.487 81.4C343.127 82.68 341.513 83.68 339.647 84.4C337.807 85.12 335.793 85.48 333.607 85.48ZM333.567 79.96C334.82 79.96 335.967 79.7467 337.007 79.32C338.073 78.8933 339.007 78.28 339.807 77.48C340.607 76.68 341.22 75.7333 341.647 74.64C342.1 73.5467 342.327 72.3333 342.327 71C342.327 69.6667 342.1 68.4533 341.647 67.36C341.22 66.2667 340.607 65.32 339.807 64.52C339.033 63.72 338.113 63.1067 337.047 62.68C335.98 62.2533 334.82 62.04 333.567 62.04C332.313 62.04 331.153 62.2533 330.087 62.68C329.047 63.1067 328.127 63.72 327.327 64.52C326.527 65.32 325.9 66.2667 325.447 67.36C325.02 68.4533 324.807 69.6667 324.807 71C324.807 72.3067 325.02 73.52 325.447 74.64C325.9 75.7333 326.513 76.68 327.287 77.48C328.087 78.28 329.02 78.8933 330.087 79.32C331.153 79.7467 332.313 79.96 333.567 79.96ZM353.398 85V63.48H359.598V71.88H368.958V63.48H375.198V85H368.958V76.96H359.598V85H353.398ZM396.412 85L389.212 74.8L394.292 71.8L403.772 85H396.412ZM381.172 85V63.48H387.412V85H381.172ZM385.572 76.84V71.84H393.092V76.84H385.572ZM394.892 74.96L389.052 74.32L396.612 63.48H403.252L394.892 74.96ZM416.252 85.32C413.959 85.32 411.919 84.84 410.132 83.88C408.372 82.92 406.972 81.6133 405.932 79.96C404.919 78.28 404.412 76.3733 404.412 74.24C404.412 72.08 404.919 70.1733 405.932 68.52C406.972 66.84 408.372 65.5333 410.132 64.6C411.919 63.64 413.959 63.16 416.252 63.16C418.519 63.16 420.545 63.64 422.332 64.6C424.119 65.5333 425.519 66.8267 426.532 68.48C427.545 70.1333 428.052 72.0533 428.052 74.24C428.052 76.3733 427.545 78.28 426.532 79.96C425.519 81.6133 424.119 82.92 422.332 83.88C420.545 84.84 418.519 85.32 416.252 85.32ZM416.252 80.2C417.292 80.2 418.225 79.96 419.052 79.48C419.879 79 420.532 78.32 421.012 77.44C421.492 76.5333 421.732 75.4667 421.732 74.24C421.732 72.9867 421.492 71.92 421.012 71.04C420.532 70.16 419.879 69.48 419.052 69C418.225 68.52 417.292 68.28 416.252 68.28C415.212 68.28 414.279 68.52 413.452 69C412.625 69.48 411.959 70.16 411.452 71.04C410.972 71.92 410.732 72.9867 410.732 74.24C410.732 75.4667 410.972 76.5333 411.452 77.44C411.959 78.32 412.625 79 413.452 79.48C414.279 79.96 415.212 80.2 416.252 80.2ZM429.311 84.96L429.631 79.84C429.791 79.8667 429.951 79.8933 430.111 79.92C430.271 79.92 430.418 79.92 430.551 79.92C431.298 79.92 431.885 79.7067 432.311 79.28C432.738 78.8533 433.058 78.28 433.271 77.56C433.485 76.8133 433.631 75.9733 433.711 75.04C433.818 74.1067 433.898 73.1333 433.951 72.12L434.271 63.48H452.671V85H446.431V67.08L447.831 68.6H438.391L439.711 67L439.431 72.4C439.351 74.32 439.191 76.08 438.951 77.68C438.738 79.28 438.378 80.6667 437.871 81.84C437.365 82.9867 436.685 83.88 435.831 84.52C434.978 85.1333 433.885 85.44 432.551 85.44C432.071 85.44 431.565 85.4 431.031 85.32C430.498 85.24 429.925 85.12 429.311 84.96ZM468.752 85.32C466.459 85.32 464.419 84.84 462.632 83.88C460.872 82.92 459.472 81.6133 458.432 79.96C457.419 78.28 456.912 76.3733 456.912 74.24C456.912 72.08 457.419 70.1733 458.432 68.52C459.472 66.84 460.872 65.5333 462.632 64.6C464.419 63.64 466.459 63.16 468.752 63.16C471.019 63.16 473.045 63.64 474.832 64.6C476.619 65.5333 478.019 66.8267 479.032 68.48C480.045 70.1333 480.552 72.0533 480.552 74.24C480.552 76.3733 480.045 78.28 479.032 79.96C478.019 81.6133 476.619 82.92 474.832 83.88C473.045 84.84 471.019 85.32 468.752 85.32ZM468.752 80.2C469.792 80.2 470.725 79.96 471.552 79.48C472.379 79 473.032 78.32 473.512 77.44C473.992 76.5333 474.232 75.4667 474.232 74.24C474.232 72.9867 473.992 71.92 473.512 71.04C473.032 70.16 472.379 69.48 471.552 69C470.725 68.52 469.792 68.28 468.752 68.28C467.712 68.28 466.779 68.52 465.952 69C465.125 69.48 464.459 70.16 463.952 71.04C463.472 71.92 463.232 72.9867 463.232 74.24C463.232 75.4667 463.472 76.5333 463.952 77.44C464.459 78.32 465.125 79 465.952 79.48C466.779 79.96 467.712 80.2 468.752 80.2ZM484.844 85V63.48H502.084V68.6H489.644L491.044 67.24V85H484.844ZM505.391 85V63.48H511.591V76.28L522.071 63.48H527.791V85H521.591V72.2L511.151 85H505.391ZM533.789 85V63.48H539.989V76.28L550.469 63.48H556.189V85H549.989V72.2L539.549 85H533.789Z" fill="black"/>
<path d="M210 140V118.48H216.2V131.28L226.68 118.48H232.4V140H226.2V127.2L215.76 140H210ZM238.398 140V118.48H244.918L253.038 133.2H250.438L259.118 118.48H264.958L265.038 140H259.398V124.88L260.358 125.52L252.958 137.92H250.318L242.878 125.08L244.038 124.8V140H238.398ZM273.256 140.32C272.189 140.32 271.269 139.96 270.496 139.24C269.749 138.493 269.376 137.547 269.376 136.4C269.376 135.253 269.749 134.333 270.496 133.64C271.269 132.92 272.189 132.56 273.256 132.56C274.349 132.56 275.269 132.92 276.016 133.64C276.762 134.333 277.136 135.253 277.136 136.4C277.136 137.547 276.762 138.493 276.016 139.24C275.269 139.96 274.349 140.32 273.256 140.32ZM293.293 140V112H298.653L310.573 131.76H307.733L319.453 112H324.813L324.853 140H318.773L318.733 121.32H319.893L310.493 137.04H307.613L298.013 121.32H299.373V140H293.293ZM331.328 140V118.48H337.528V131.28L348.008 118.48H353.728V140H347.528V127.2L337.088 140H331.328ZM356.847 140L366.487 127.36L366.367 130.8L357.127 118.48H364.127L369.967 126.52L367.327 126.6L373.367 118.48H380.007L370.727 130.68V127.32L380.327 140H373.247L367.127 131.44L369.727 131.8L363.647 140H356.847ZM395.888 140V135.8L395.488 134.88V127.36C395.488 126.027 395.074 124.987 394.248 124.24C393.448 123.493 392.208 123.12 390.528 123.12C389.381 123.12 388.248 123.307 387.128 123.68C386.034 124.027 385.101 124.507 384.328 125.12L382.088 120.76C383.261 119.933 384.674 119.293 386.328 118.84C387.981 118.387 389.661 118.16 391.368 118.16C394.648 118.16 397.194 118.933 399.008 120.48C400.821 122.027 401.728 124.44 401.728 127.72V140H395.888ZM389.328 140.32C387.648 140.32 386.208 140.04 385.008 139.48C383.808 138.893 382.888 138.107 382.248 137.12C381.608 136.133 381.288 135.027 381.288 133.8C381.288 132.52 381.594 131.4 382.208 130.44C382.848 129.48 383.848 128.733 385.208 128.2C386.568 127.64 388.341 127.36 390.528 127.36H396.248V131H391.208C389.741 131 388.728 131.24 388.168 131.72C387.634 132.2 387.368 132.8 387.368 133.52C387.368 134.32 387.674 134.96 388.288 135.44C388.928 135.893 389.794 136.12 390.888 136.12C391.928 136.12 392.861 135.88 393.688 135.4C394.514 134.893 395.114 134.16 395.488 133.2L396.448 136.08C395.994 137.467 395.168 138.52 393.968 139.24C392.768 139.96 391.221 140.32 389.328 140.32ZM407.148 140V118.48H413.348V131.28L423.828 118.48H429.548V140H423.348V127.2L412.908 140H407.148ZM432.827 139.96L433.147 134.84C433.307 134.867 433.467 134.893 433.627 134.92C433.787 134.92 433.934 134.92 434.067 134.92C434.814 134.92 435.4 134.707 435.827 134.28C436.254 133.853 436.574 133.28 436.787 132.56C437 131.813 437.147 130.973 437.227 130.04C437.334 129.107 437.414 128.133 437.467 127.12L437.787 118.48H456.187V140H449.947V122.08L451.347 123.6H441.907L443.227 122L442.947 127.4C442.867 129.32 442.707 131.08 442.467 132.68C442.254 134.28 441.894 135.667 441.387 136.84C440.88 137.987 440.2 138.88 439.347 139.52C438.494 140.133 437.4 140.44 436.067 140.44C435.587 140.44 435.08 140.4 434.547 140.32C434.014 140.24 433.44 140.12 432.827 139.96ZM475.068 140V135.8L474.668 134.88V127.36C474.668 126.027 474.254 124.987 473.428 124.24C472.628 123.493 471.388 123.12 469.708 123.12C468.561 123.12 467.428 123.307 466.308 123.68C465.214 124.027 464.281 124.507 463.508 125.12L461.268 120.76C462.441 119.933 463.854 119.293 465.508 118.84C467.161 118.387 468.841 118.16 470.548 118.16C473.828 118.16 476.374 118.933 478.188 120.48C480.001 122.027 480.908 124.44 480.908 127.72V140H475.068ZM468.508 140.32C466.828 140.32 465.388 140.04 464.188 139.48C462.988 138.893 462.068 138.107 461.428 137.12C460.788 136.133 460.468 135.027 460.468 133.8C460.468 132.52 460.774 131.4 461.388 130.44C462.028 129.48 463.028 128.733 464.388 128.2C465.748 127.64 467.521 127.36 469.708 127.36H475.428V131H470.388C468.921 131 467.908 131.24 467.348 131.72C466.814 132.2 466.548 132.8 466.548 133.52C466.548 134.32 466.854 134.96 467.468 135.44C468.108 135.893 468.974 136.12 470.068 136.12C471.108 136.12 472.041 135.88 472.868 135.4C473.694 134.893 474.294 134.16 474.668 133.2L475.628 136.08C475.174 137.467 474.348 138.52 473.148 139.24C471.948 139.96 470.401 140.32 468.508 140.32ZM516.696 137.12V117.28H507.096L506.976 121.36C506.896 123.093 506.776 124.733 506.616 126.28C506.483 127.827 506.27 129.24 505.976 130.52C505.683 131.773 505.296 132.84 504.816 133.72C504.363 134.6 503.79 135.227 503.096 135.6L496.176 134.72C497.136 134.747 497.923 134.413 498.536 133.72C499.176 133.027 499.683 132.053 500.056 130.8C500.43 129.52 500.696 128.027 500.856 126.32C501.043 124.613 501.176 122.76 501.256 120.76L501.576 112H523.096V137.12H516.696ZM495.256 145.8L495.296 134.72H527.016V145.8H521.016V140H501.256V145.8H495.256ZM543.778 140V135.8L543.378 134.88V127.36C543.378 126.027 542.965 124.987 542.138 124.24C541.338 123.493 540.098 123.12 538.418 123.12C537.272 123.12 536.138 123.307 535.018 123.68C533.925 124.027 532.992 124.507 532.218 125.12L529.978 120.76C531.152 119.933 532.565 119.293 534.218 118.84C535.872 118.387 537.552 118.16 539.258 118.16C542.538 118.16 545.085 118.933 546.898 120.48C548.712 122.027 549.618 124.44 549.618 127.72V140H543.778ZM537.218 140.32C535.538 140.32 534.098 140.04 532.898 139.48C531.698 138.893 530.778 138.107 530.138 137.12C529.498 136.133 529.178 135.027 529.178 133.8C529.178 132.52 529.485 131.4 530.098 130.44C530.738 129.48 531.738 128.733 533.098 128.2C534.458 127.64 536.232 127.36 538.418 127.36H544.138V131H539.098C537.632 131 536.618 131.24 536.058 131.72C535.525 132.2 535.258 132.8 535.258 133.52C535.258 134.32 535.565 134.96 536.178 135.44C536.818 135.893 537.685 136.12 538.778 136.12C539.818 136.12 540.752 135.88 541.578 135.4C542.405 134.893 543.005 134.16 543.378 133.2L544.338 136.08C543.885 137.467 543.058 138.52 541.858 139.24C540.658 139.96 539.112 140.32 537.218 140.32ZM555.039 140V118.48H566.039C568.732 118.48 570.839 118.973 572.359 119.96C573.879 120.92 574.639 122.28 574.639 124.04C574.639 125.8 573.919 127.187 572.479 128.2C571.066 129.187 569.186 129.68 566.839 129.68L567.479 128.24C570.092 128.24 572.039 128.72 573.319 129.68C574.626 130.64 575.279 132.04 575.279 133.88C575.279 135.773 574.559 137.267 573.119 138.36C571.679 139.453 569.479 140 566.519 140H555.039ZM560.759 135.76H565.999C567.146 135.76 567.999 135.573 568.559 135.2C569.146 134.8 569.439 134.2 569.439 133.4C569.439 132.573 569.172 131.973 568.639 131.6C568.106 131.2 567.266 131 566.119 131H560.759V135.76ZM560.759 127.32H565.479C566.572 127.32 567.386 127.12 567.919 126.72C568.479 126.32 568.759 125.747 568.759 125C568.759 124.227 568.479 123.653 567.919 123.28C567.386 122.907 566.572 122.72 565.479 122.72H560.759V127.32ZM602.082 140V118.48H608.282V140H602.082ZM591.242 125.36C594.069 125.387 596.189 126.027 597.602 127.28C599.042 128.507 599.762 130.253 599.762 132.52C599.762 134.893 598.949 136.747 597.322 138.08C595.695 139.387 593.389 140.04 590.402 140.04L579.922 140V118.48H586.122V125.36H591.242ZM589.842 135.6C591.042 135.627 591.962 135.373 592.602 134.84C593.242 134.307 593.562 133.507 593.562 132.44C593.562 131.373 593.242 130.613 592.602 130.16C591.962 129.68 591.042 129.427 589.842 129.4L586.122 129.36V135.6H589.842ZM629.097 137.2V123.6H622.057L621.937 126.36C621.884 127.507 621.817 128.6 621.737 129.64C621.657 130.68 621.497 131.627 621.257 132.48C621.044 133.307 620.724 134.013 620.297 134.6C619.87 135.16 619.297 135.547 618.577 135.76L612.417 134.88C613.19 134.88 613.817 134.653 614.297 134.2C614.777 133.72 615.15 133.067 615.417 132.24C615.684 131.387 615.884 130.427 616.017 129.36C616.15 128.267 616.244 127.12 616.297 125.92L616.577 118.48H635.337V137.2H629.097ZM611.697 144.64V134.88H638.417V144.64H632.617V140H617.497V144.64H611.697ZM652.424 140.32C650.13 140.32 648.09 139.84 646.304 138.88C644.544 137.92 643.144 136.613 642.104 134.96C641.09 133.28 640.584 131.373 640.584 129.24C640.584 127.08 641.09 125.173 642.104 123.52C643.144 121.84 644.544 120.533 646.304 119.6C648.09 118.64 650.13 118.16 652.424 118.16C654.69 118.16 656.717 118.64 658.504 119.6C660.29 120.533 661.69 121.827 662.704 123.48C663.717 125.133 664.224 127.053 664.224 129.24C664.224 131.373 663.717 133.28 662.704 134.96C661.69 136.613 660.29 137.92 658.504 138.88C656.717 139.84 654.69 140.32 652.424 140.32ZM652.424 135.2C653.464 135.2 654.397 134.96 655.224 134.48C656.05 134 656.704 133.32 657.184 132.44C657.664 131.533 657.904 130.467 657.904 129.24C657.904 127.987 657.664 126.92 657.184 126.04C656.704 125.16 656.05 124.48 655.224 124C654.397 123.52 653.464 123.28 652.424 123.28C651.384 123.28 650.45 123.52 649.624 124C648.797 124.48 648.13 125.16 647.624 126.04C647.144 126.92 646.904 127.987 646.904 129.24C646.904 130.467 647.144 131.533 647.624 132.44C648.13 133.32 648.797 134 649.624 134.48C650.45 134.96 651.384 135.2 652.424 135.2ZM668.516 140V118.48H679.516C682.209 118.48 684.316 118.973 685.836 119.96C687.356 120.92 688.116 122.28 688.116 124.04C688.116 125.8 687.396 127.187 685.956 128.2C684.542 129.187 682.662 129.68 680.316 129.68L680.956 128.24C683.569 128.24 685.516 128.72 686.796 129.68C688.102 130.64 688.756 132.04 688.756 133.88C688.756 135.773 688.036 137.267 686.596 138.36C685.156 139.453 682.956 140 679.996 140H668.516ZM674.236 135.76H679.476C680.622 135.76 681.476 135.573 682.036 135.2C682.622 134.8 682.916 134.2 682.916 133.4C682.916 132.573 682.649 131.973 682.116 131.6C681.582 131.2 680.742 131 679.596 131H674.236V135.76ZM674.236 127.32H678.956C680.049 127.32 680.862 127.12 681.396 126.72C681.956 126.32 682.236 125.747 682.236 125C682.236 124.227 681.956 123.653 681.396 123.28C680.862 122.907 680.049 122.72 678.956 122.72H674.236V127.32ZM706.278 140V135.8L705.878 134.88V127.36C705.878 126.027 705.465 124.987 704.638 124.24C703.838 123.493 702.598 123.12 700.918 123.12C699.772 123.12 698.638 123.307 697.518 123.68C696.425 124.027 695.492 124.507 694.718 125.12L692.478 120.76C693.652 119.933 695.065 119.293 696.718 118.84C698.372 118.387 700.052 118.16 701.758 118.16C705.038 118.16 707.585 118.933 709.398 120.48C711.212 122.027 712.118 124.44 712.118 127.72V140H706.278ZM699.718 140.32C698.038 140.32 696.598 140.04 695.398 139.48C694.198 138.893 693.278 138.107 692.638 137.12C691.998 136.133 691.678 135.027 691.678 133.8C691.678 132.52 691.985 131.4 692.598 130.44C693.238 129.48 694.238 128.733 695.598 128.2C696.958 127.64 698.732 127.36 700.918 127.36H706.638V131H701.598C700.132 131 699.118 131.24 698.558 131.72C698.025 132.2 697.758 132.8 697.758 133.52C697.758 134.32 698.065 134.96 698.678 135.44C699.318 135.893 700.185 136.12 701.278 136.12C702.318 136.12 703.252 135.88 704.078 135.4C704.905 134.893 705.505 134.16 705.878 133.2L706.838 136.08C706.385 137.467 705.558 138.52 704.358 139.24C703.158 139.96 701.612 140.32 699.718 140.32Z" fill="#2563EB"/>
</svg>
